<svg width="183" height="183" viewBox="0 0 183 183" fill="none" xmlns="http://www.w3.org/2000/svg">
<path fill-rule="evenodd" clip-rule="evenodd" d="M125.571 83.2811L164.722 59.3853L182.263 93.9321C186.503 112.807 163.279 119.734 144.633 118.609L125.565 83.2811H125.571Z" fill="#46BA4A"/>
<path fill-rule="evenodd" clip-rule="evenodd" d="M116.67 107.958L96.0762 145.104L116.67 182.771L117.18 167.703H135.993C142.857 168.307 151.753 163.719 155.061 157.052L179.212 111.854C171.248 119.906 161.003 121.984 149.217 121.984H117.436L116.67 107.958Z" fill="#46BA4A"/>
<path fill-rule="evenodd" clip-rule="evenodd" d="M70.6592 62.1613L31.2061 38.7863L52.2529 6.34877C66.3519 -6.59915 83.5498 10.7811 91.6331 27.979L70.6592 62.1613Z" fill="#46BA4A"/>
<path fill-rule="evenodd" clip-rule="evenodd" d="M96.0973 58.1301L137.879 58.4999L160.113 21.8228L146.972 28.677L137.842 11.8749C135.03 5.44781 126.785 -0.276145 119.472 0.0103124L69.0713 0.369687C79.8317 3.57802 86.5817 11.7239 92.3005 22.2551L107.728 50.6405L96.0973 58.1353V58.1301Z" fill="#46BA4A"/>
<path fill-rule="evenodd" clip-rule="evenodd" d="M1.01388 60.224L13.2378 69.776L1.73263 91.8177C-4.01737 101.984 5.86284 111.885 12.1597 115.328C18.3576 118.724 27.9826 119.125 36.9722 119L53.1493 92.5521L65.3733 99.1667L44.1597 59.8594L1.01388 60.224Z" fill="#46BA4A"/>
<path fill-rule="evenodd" clip-rule="evenodd" d="M2.81055 111.292L29.0605 159.781C34.3314 166.515 44.2793 168.109 54.5866 167.864H82.2741V121.943L29.7793 121.578C21.6283 122.068 10.9616 120.354 2.81055 111.292Z" fill="#46BA4A"/>
</svg>
